# File created by Blade
# Date/Time:  Mon Sep 22 17:38:34 2014
# Frame Rate: 120.000 fps
#------------------------------------------------------
:FULLY-SPECIFIED
:DEGREES
3228
root 1.949495 37.873867 6.914434 7.311428 -0.297587 15.908779
RightUpLeg 1.955127 -2.832344 -10.067391
RightLeg -4.634131 -0.000000 0.000000
RightFoot -12.214841 -16.731211 10.110579
RightToeBase 9.509263 -0.000000 -0.000000
LeftUpLeg 15.153831 -21.200803 1.880670
LeftLeg 108.740224 -0.000000 -0.000000
LeftFoot 25.656822 24.285176 -29.318355
LeftToeBase -3.105560 -0.000000 0.000000
Spine 3.014880 16.594885 4.483173
RightShoulder 4.773707 -16.625189 -20.121395
RightArm 40.743717 -3.107107 44.439631
RightForeArm 2.569741 -0.000000 103.211348
RightHand 2.341119 0.000000 -31.514998
RightHandThumb1 -24.326973 -0.000000 -32.862282
LeftShoulder -29.426884 37.029847 -15.175146
LeftArm 26.932946 -6.728852 -69.237441
LeftForeArm 29.682105 0.000000 61.202669
LeftHand -27.237343 -0.000000 12.688389
LeftHandThumb1 -26.253704 0.000000 33.147579
Head 19.348209 0.442862 -20.130337
3229
root 1.943665 37.864423 6.922962 7.464495 -0.981143 15.704694
RightUpLeg 1.688178 -2.202389 -9.940161
RightLeg -4.756520 -0.000000 0.000000
RightFoot -12.094656 -16.637728 10.140207
RightToeBase 9.516161 -0.000000 -0.000000
LeftUpLeg 16.221229 -22.297640 0.851288
LeftLeg 108.588666 -0.000000 -0.000000
LeftFoot 25.616576 24.237863 -29.449387
LeftToeBase -2.994399 -0.000000 0.000000
Spine 2.771264 17.129996 4.550121
RightShoulder 4.884497 -16.670266 -20.068502
RightArm 40.990951 -3.268852 44.478205
RightForeArm 2.433480 0.000000 103.143489
RightHand 2.321613 -0.000000 -31.576810
RightHandThumb1 -24.326973 -0.000000 -32.862282
LeftShoulder -29.479999 36.957852 -15.093824
LeftArm 26.424231 -7.089568 -69.363468
LeftForeArm 30.105794 -0.000000 60.868572
LeftHand -28.140938 -0.000000 11.928570
LeftHandThumb1 -26.253704 0.000000 33.147579
Head 19.443306 0.493035 -20.019450
3230
root 1.931427 37.854221 6.924703 7.638291 -1.579461 15.480609
RightUpLeg 1.393149 -1.651104 -9.776828
RightLeg -4.826520 -0.000000 0.000000
RightFoot -12.000913 -16.544879 10.173122
RightToeBase 9.504280 -0.000000 -0.000000
LeftUpLeg 17.137641 -23.304681 -0.001826
LeftLeg 108.405544 -0.000000 -0.000000
LeftFoot 25.558814 24.301757 -29.568007
LeftToeBase -3.502276 -0.000000 0.000000
Spine 2.522704 17.604469 4.627053
RightShoulder 4.956556 -16.644238 -19.986326
RightArm 41.210613 -3.505884 44.463763
RightForeArm 2.011263 -0.000000 103.091547
RightHand 2.105019 -0.000000 -31.776063
RightHandThumb1 -24.326973 -0.000000 -32.862282
LeftShoulder -29.461159 36.841263 -14.926367
LeftArm 25.942799 -7.415873 -69.504147
LeftForeArm 30.125706 -0.000000 60.353672
LeftHand -28.687253 -0.000000 12.149974
LeftHandThumb1 -26.253704 0.000000 33.147579
Head 19.523960 0.525114 -19.897515
3231
root 1.921147 37.845762 6.924876 7.858996 -2.140671 15.295428
RightUpLeg 1.057161 -1.209773 -9.657418
RightLeg -4.890827 -0.000000 0.000000
RightFoot -11.893066 -16.370668 10.191682
RightToeBase 9.466466 -0.000000 -0.000000
LeftUpLeg 17.922475 -24.229072 -0.824282
LeftLeg 108.147603 -0.000000 -0.000000
LeftFoot 25.638856 24.266867 -29.594917
LeftToeBase -3.839243 -0.000000 0.000000
Spine 2.205634 18.052625 4.638138
RightShoulder 5.024556 -16.713554 -19.882829
RightArm 41.462878 -3.651453 44.469830
RightForeArm 1.790456 -0.000000 103.040759
RightHand 2.069863 0.000000 -31.746601
RightHandThumb1 -24.326973 -0.000000 -32.862282
LeftShoulder -29.474428 36.766771 -14.786144
LeftArm 25.526921 -7.747198 -69.628069
LeftForeArm 30.300936 0.000000 59.788619
LeftHand -28.593072 -0.000000 12.383225
LeftHandThumb1 -26.253704 0.000000 33.147579
Head 19.633961 0.568124 -19.770503
